<?xml version="1.0" encoding="UTF-8"?>
<svg version="1.1" xmlns="http://www.w3.org/2000/svg" width="4167" height="1177">
<path d="M0 0 C3.38981743 0.00108241 6.77961663 -0.00384473 10.16943008 -0.00860542 C18.16863413 -0.01962435 26.16779117 -0.0201789 34.1669991 -0.01409125 C42.38388185 -0.00803396 50.60059414 -0.02042438 58.81744784 -0.04166132 C65.91605989 -0.05932456 73.01461784 -0.06527195 80.11325103 -0.06202358 C84.33431344 -0.06022087 88.55525369 -0.06274645 92.7762959 -0.07673812 C96.74020137 -0.08939232 100.70384116 -0.08730143 104.66774297 -0.07432723 C106.11240856 -0.07197977 107.55709335 -0.07462958 109.00173688 -0.08295035 C126.41878363 -0.17595936 140.06905684 3.74313051 152.88062215 15.88361382 C163.23291309 26.81888361 168.50453301 39.99108666 168.1994698 55.06598687 C167.48872828 70.83956 161.31893232 83.68980356 149.91968465 94.61408257 C136.69430259 105.64653803 121.08243475 107.7656266 104.37183309 107.6863482 C102.95071155 107.69046694 101.52959339 107.69593542 100.10848165 107.70262933 C97.07754598 107.71424484 94.04679184 107.7168783 91.01583791 107.71227288 C86.20417419 107.70538335 81.39274317 107.72146748 76.58112264 107.74066949 C66.36065565 107.77832004 56.14021031 107.79128516 45.91968465 107.80158257 C34.89364073 107.81270254 23.86770689 107.82836138 12.84173727 107.87229514 C8.85067579 107.88749785 4.85980325 107.89662605 0.86871266 107.89089227 C-19.3084965 107.86351821 -38.47969767 108.19587578 -57.76781535 114.86408257 C-58.77505656 115.20777886 -59.78229777 115.55147515 -60.82006145 115.90558648 C-79.50873268 122.52467531 -96.13267193 132.70165173 -110.6076591 146.23517632 C-112.60570201 148.09275928 -114.66158732 149.81979509 -116.76781535 151.55158257 C-125.6701326 159.33660494 -132.97181757 169.08327248 -138.83031535 179.30158257 C-139.15096965 179.86071343 -139.47162395 180.41984429 -139.80199504 180.99591851 C-148.34809497 196.05177494 -154.04222188 211.43801163 -157.83031535 228.30158257 C-157.99692668 229.02732476 -158.16353801 229.75306695 -158.33519816 230.50080132 C-163.00850978 251.74840446 -162.82411244 276.12241027 -157.83031535 297.30158257 C-157.64227336 298.12207086 -157.45423137 298.94255914 -157.26049113 299.7879107 C-151.63087725 323.56037728 -140.65937265 343.80189346 -124.83031535 362.30158257 C-123.80744426 363.51007867 -123.80744426 363.51007867 -122.7639091 364.74298882 C-99.04153516 392.17923736 -63.0619227 411.21960235 -26.83031535 414.30158257 C-22.00172969 414.45507575 -17.1735855 414.45580844 -12.34301066 414.45929742 C-10.88348561 414.46397313 -9.423962 414.46911792 -7.96444011 414.47469354 C-4.83358469 414.48592297 -1.7027385 414.49438183 1.42813039 414.50081277 C6.38883111 414.51155394 11.34946512 414.53181479 16.31012654 414.55393243 C30.41236997 414.61565178 44.51460848 414.66981637 58.61695027 414.70294976 C66.41504627 414.72135096 74.21302928 414.75035251 82.01104212 414.79095447 C86.12940914 414.81192664 90.24763442 414.82746782 94.36605763 414.82976174 C98.24367463 414.83192436 102.12099623 414.84795612 105.998523 414.87415147 C107.4125231 414.881284 108.82655923 414.8834752 110.24057317 414.88004899 C127.68437741 414.84456706 142.38779722 419.0000602 155.16968465 431.30158257 C166.74274639 444.81013913 170.19265698 458.57862306 169.36499715 475.99396539 C168.20590182 489.68867671 160.29656795 502.40952606 149.95874715 511.17658257 C123.3900076 531.12463298 78.17973513 523.48961788 46.87476277 523.48688531 C41.9844259 523.48680378 37.09418217 523.49380371 32.20386434 523.50739312 C-54.51214784 523.74432774 -130.72408149 510.02609224 -194.36376262 446.958565 C-209.53397033 431.77078392 -209.53397033 431.77078392 -215.83031535 423.30158257 C-216.70256288 422.15824025 -217.57496996 421.01501964 -218.44750285 419.87189507 C-244.82195199 384.96236835 -261.92804708 344.71057253 -267.83031535 301.30158257 C-267.94745891 300.45579644 -268.06460246 299.61001031 -268.18529582 298.73859429 C-271.49458038 273.5280416 -271.32295425 246.47548607 -267.83031535 221.30158257 C-267.70672648 220.39794976 -267.58313762 219.49431695 -267.45580363 218.56330132 C-261.18264753 174.58277416 -243.30970112 132.49943189 -214.83031535 98.30158257 C-214.15984172 97.48681451 -214.15984172 97.48681451 -213.47582316 96.65558648 C-196.09845098 75.55627894 -196.09845098 75.55627894 -185.84594035 67.01252007 C-184.3811568 65.76915729 -182.95885944 64.47520197 -181.56469035 63.15314507 C-168.78279216 51.03778759 -154.22687606 40.81403422 -138.83031535 32.30158257 C-138.05494426 31.86749078 -137.27957316 31.43339898 -136.48070598 30.98615289 C-123.67288979 23.8646084 -110.70534923 18.01745333 -96.83031535 13.30158257 C-96.01772258 13.0247564 -95.2051298 12.74793023 -94.36791301 12.46271539 C-84.47909556 9.16046779 -74.47781207 6.64908803 -64.26781535 4.55158257 C-63.31229777 4.35282525 -62.3567802 4.15406793 -61.37230754 3.94928765 C-41.0128042 -0.02084953 -20.64928191 -0.01308492 0 0 Z " fill="#353688" transform="translate(1177.8303153514862,326.69841742515564)"/>
<path d="M0 0 C1.50937518 -0.00464064 3.01874922 -0.00966692 4.52812195 -0.01504517 C8.59213666 -0.02804355 12.65613496 -0.0345882 16.72016716 -0.03905582 C19.26647531 -0.04200448 21.81277914 -0.04611229 24.35908508 -0.05056 C32.3478186 -0.06419619 40.33654205 -0.0738841 48.32528639 -0.07776189 C57.50823296 -0.0822459 66.69103094 -0.09982604 75.87393236 -0.12876248 C83.00211908 -0.15043627 90.13026412 -0.16046905 97.25848341 -0.16180301 C101.50313536 -0.16284612 105.74764689 -0.16864903 109.99226379 -0.18662262 C113.98478795 -0.2032045 117.97706752 -0.20521027 121.96961403 -0.19648361 C123.42556734 -0.19571886 124.8815344 -0.19998076 126.33745384 -0.20994186 C143.79804564 -0.3223014 157.46443979 3.5699483 170.31054688 15.74316406 C180.47910625 26.48435562 185.49475783 39.09346981 185.63476562 53.87207031 C184.96182514 70.05546834 178.50489618 84.0605361 166.59960938 95.16113281 C153.12851243 105.66402196 139.07992615 107.30663788 122.59643555 107.31884766 C121.17634933 107.32352252 119.7562646 107.32866718 118.33618164 107.33424377 C115.28608022 107.3454847 112.23598833 107.35393846 109.18587303 107.36036301 C104.34542152 107.37110754 99.50503834 107.39137273 94.66462708 107.41348267 C80.9025082 107.47517951 67.14039305 107.5292515 53.37817383 107.5625 C45.77083432 107.58095867 38.1636094 107.61003713 30.55635434 107.65050471 C26.54173894 107.67139527 22.5272668 107.68700602 18.51259422 107.68931198 C-1.71168891 107.70426374 -20.98430319 108.03279209 -40.33789062 114.72363281 C-41.34513184 115.0673291 -42.35237305 115.41102539 -43.39013672 115.76513672 C-62.07880795 122.38422555 -78.7027472 132.56120197 -93.17773438 146.09472656 C-95.17577729 147.95230952 -97.2316626 149.67934532 -99.33789062 151.41113281 C-108.2437884 159.19928633 -115.53264839 168.94387536 -121.40039062 179.16113281 C-122.36912109 180.83755859 -122.36912109 180.83755859 -123.35742188 182.54785156 C-137.06435474 206.89673135 -143.81620233 234.11737625 -143.77539062 262.03613281 C-143.77407639 263.03709991 -143.77407639 263.03709991 -143.7727356 264.05828857 C-143.63013342 297.32456465 -134.05562919 330.37430268 -112.40039062 356.16113281 C-111.44199294 357.33295519 -110.48366335 358.50483325 -109.52539062 359.67675781 C-103.64807213 366.77816292 -97.57783235 373.33697968 -90.40039062 379.16113281 C-89.83900391 379.61697754 -89.27761719 380.07282227 -88.69921875 380.54248047 C-61.3931333 402.46681098 -29.94457285 414.29354546 5.08691406 414.31884766 C6.54643911 414.32352336 8.00596273 414.32866816 9.46548462 414.33424377 C12.59634004 414.34547321 15.72718623 414.35393206 18.85805511 414.36036301 C23.81875584 414.37110418 28.77938985 414.39136503 33.74005127 414.41348267 C47.84229469 414.47520202 61.94453321 414.52936661 76.046875 414.5625 C83.844971 414.5809012 91.64295401 414.60990275 99.44096684 414.65050471 C103.55933386 414.67147688 107.67755915 414.68701805 111.79598236 414.68931198 C115.67359936 414.6914746 119.55092095 414.70750636 123.42844772 414.73370171 C124.84244782 414.74083424 126.25648396 414.74302544 127.67049789 414.73959923 C145.97414369 414.70236832 160.26014298 419.35442544 173.59960938 432.16113281 C184.72023606 444.74775548 187.40285383 459.62598049 186.77880859 475.7890625 C185.81489111 488.54849337 178.71544884 500.44479228 169.59960938 509.16113281 C143.32220543 531.44585701 96.35641246 523.3492333 64.3046875 523.34643555 C59.41435062 523.34635402 54.5241069 523.35335394 49.63378906 523.36694336 C-18.55020013 523.55336923 -18.55020013 523.55336923 -47.40039062 517.16113281 C-48.34269531 516.95504395 -49.285 516.74895508 -50.25585938 516.53662109 C-108.55284221 503.52876628 -162.29577083 471.58000686 -198.40039062 423.16113281 C-199.48345324 421.75597619 -200.56681486 420.35105001 -201.65039062 418.94628906 C-209.861637 408.18142914 -217.06963603 397.12825623 -223.40039062 385.16113281 C-224.08246582 383.87891846 -224.08246582 383.87891846 -224.77832031 382.57080078 C-239.28563304 354.88102089 -248.3827517 324.28873429 -251.40039062 293.16113281 C-251.48651611 292.28183105 -251.5726416 291.4025293 -251.66137695 290.49658203 C-252.51029607 280.88255414 -252.60070918 271.3046065 -252.58789062 261.66113281 C-252.58728638 260.82009003 -252.58668213 259.97904724 -252.58605957 259.11251831 C-252.56121901 246.36279964 -252.24752258 233.7963284 -250.40039062 221.16113281 C-250.27680176 220.27603027 -250.15321289 219.39092773 -250.02587891 218.47900391 C-245.90575898 189.77799876 -237.02923761 162.71925981 -223.40039062 137.16113281 C-223.05927246 136.51225098 -222.7181543 135.86336914 -222.36669922 135.19482422 C-213.87844975 119.13950001 -203.38605306 104.76905847 -191.40039062 91.16113281 C-190.77648438 90.43796875 -190.15257813 89.71480469 -189.50976562 88.96972656 C-187.82274363 87.01861467 -186.11537358 85.08770457 -184.40039062 83.16113281 C-183.22863281 81.83275391 -183.22863281 81.83275391 -182.03320312 80.47753906 C-177.73504401 75.66333956 -173.4344797 71.08866002 -168.48632812 66.94238281 C-166.99725414 65.67081402 -165.5476846 64.35238071 -164.12695312 63.00488281 C-151.34590082 50.89237785 -136.79291696 40.67482744 -121.40039062 32.16113281 C-120.25328613 31.51797119 -120.25328613 31.51797119 -119.08300781 30.86181641 C-82.35952019 10.41070783 -42.00789419 0.03050211 0 0 Z " fill="#353688" transform="translate(3058.400390625,326.8388671875)"/>
<path d="M0 0 C3.38981743 0.00108241 6.77961663 -0.00384473 10.16943008 -0.00860542 C18.16863413 -0.01962435 26.16779117 -0.0201789 34.1669991 -0.01409125 C42.38388185 -0.00803396 50.60059414 -0.02042438 58.81744784 -0.04166132 C65.91605989 -0.05932456 73.01461784 -0.06527195 80.11325103 -0.06202358 C84.33431344 -0.06022087 88.55525369 -0.06274645 92.7762959 -0.07673812 C96.74020137 -0.08939232 100.70384116 -0.08730143 104.66774297 -0.07432723 C106.11240856 -0.07197977 107.55709335 -0.07462958 109.00173688 -0.08295035 C126.41878363 -0.17595936 140.06905684 3.74313051 152.88062215 15.88361382 C163.23291309 26.81888361 168.50453301 39.99108666 168.1994698 55.06598687 C167.48872828 70.83956 161.31893232 83.68980356 149.91968465 94.61408257 C136.69430259 105.64653803 121.08243475 107.7656266 104.37183309 107.6863482 C102.95071155 107.69046694 101.52959339 107.69593542 100.10848165 107.70262933 C97.07754598 107.71424484 94.04679184 107.7168783 91.01583791 107.71227288 C86.20417419 107.70538335 81.39274317 107.72146748 76.58112264 107.74066949 C66.36065565 107.77832004 56.14021031 107.79128516 45.91968465 107.80158257 C34.89364073 107.81270254 23.86770689 107.82836138 12.84173727 107.87229514 C8.85067579 107.88749785 4.85980325 107.89662605 0.86871266 107.89089227 C-19.3084965 107.86351821 -38.47969767 108.19587578 -57.76781535 114.86408257 C-58.77505656 115.20777886 -59.78229777 115.55147515 -60.82006145 115.90558648 C-79.50873268 122.52467531 -96.13267193 132.70165173 -110.6076591 146.23517632 C-112.60570201 148.09275928 -114.66158732 149.81979509 -116.76781535 151.55158257 C-125.6701326 159.33660494 -132.97181757 169.08327248 -138.83031535 179.30158257 C-139.15096965 179.86071343 -139.47162395 180.41984429 -139.80199504 180.99591851 C-148.34809497 196.05177494 -154.04222188 211.43801163 -157.83031535 228.30158257 C-157.99692668 229.02732476 -158.16353801 229.75306695 -158.33519816 230.50080132 C-163.00850978 251.74840446 -162.82411244 276.12241027 -157.83031535 297.30158257 C-157.64227336 298.12207086 -157.45423137 298.94255914 -157.26049113 299.7879107 C-151.63087725 323.56037728 -140.65937265 343.80189346 -124.83031535 362.30158257 C-123.80744426 363.51007867 -123.80744426 363.51007867 -122.7639091 364.74298882 C-99.04153516 392.17923736 -63.0619227 411.21960235 -26.83031535 414.30158257 C-22.00172969 414.45507575 -17.1735855 414.45580844 -12.34301066 414.45929742 C-10.88348561 414.46397313 -9.423962 414.46911792 -7.96444011 414.47469354 C-4.83358469 414.48592297 -1.7027385 414.49438183 1.42813039 414.50081277 C6.38883111 414.51155394 11.34946512 414.53181479 16.31012654 414.55393243 C30.41236997 414.61565178 44.51460848 414.66981637 58.61695027 414.70294976 C66.41504627 414.72135096 74.21302928 414.75035251 82.01104212 414.79095447 C86.12940914 414.81192664 90.24763442 414.82746782 94.36605763 414.82976174 C98.24367463 414.83192436 102.12099623 414.84795612 105.998523 414.87415147 C107.4125231 414.881284 108.82655923 414.8834752 110.24057317 414.88004899 C127.71899375 414.84449665 142.34339389 419.02109142 155.16968465 431.30158257 C166.84915571 444.4128627 170.00369273 458.96963696 169.34888387 475.92951226 C168.38496639 488.68894313 161.28552412 500.58524205 152.16968465 509.30158257 C125.8922807 531.58630677 78.92648773 523.48968306 46.87476277 523.48688531 C41.9844259 523.48680378 37.09418217 523.49380371 32.20386434 523.50739312 C-54.51451905 523.74433422 -130.71963269 510.02436273 -194.3630302 446.95954156 C-209.4407761 431.86287936 -209.4407761 431.86287936 -215.83031535 423.30158257 C-216.90153924 421.91976919 -217.97319437 420.53829007 -219.0451591 419.15705132 C-227.75902262 407.78535144 -235.14532173 395.96527543 -241.83031535 383.30158257 C-242.48725383 382.06964166 -242.48725383 382.06964166 -243.15746379 380.81281304 C-262.4957621 344.04662363 -270.07650752 303.04859009 -270.01781535 261.80158257 C-270.0172111 261.01200158 -270.01660686 260.22242059 -270.0159843 259.4089129 C-269.98951456 246.61741464 -269.59055033 233.98883331 -267.83031535 221.30158257 C-267.70672648 220.39794976 -267.58313762 219.49431695 -267.45580363 218.56330132 C-261.18264753 174.58277416 -243.30970112 132.49943189 -214.83031535 98.30158257 C-214.15984172 97.48681451 -214.15984172 97.48681451 -213.47582316 96.65558648 C-196.09845098 75.55627894 -196.09845098 75.55627894 -185.84594035 67.01252007 C-184.3811568 65.76915729 -182.95885944 64.47520197 -181.56469035 63.15314507 C-168.78279216 51.03778759 -154.22687606 40.81403422 -138.83031535 32.30158257 C-138.05494426 31.86749078 -137.27957316 31.43339898 -136.48070598 30.98615289 C-123.67288979 23.8646084 -110.70534923 18.01745333 -96.83031535 13.30158257 C-96.01772258 13.0247564 -95.2051298 12.74793023 -94.36791301 12.46271539 C-84.47909556 9.16046779 -74.47781207 6.64908803 -64.26781535 4.55158257 C-63.31229777 4.35282525 -62.3567802 4.15406793 -61.37230754 3.94928765 C-41.0128042 -0.02084953 -20.64928191 -0.01308492 0 0 Z " fill="#353688" transform="translate(2583.830315351486,326.69841742515564)"/>
<path d="M0 0 C1.27349304 -0.00571014 2.54698608 -0.01142029 3.85906982 -0.01730347 C5.26365652 -0.0185488 6.66824332 -0.0196739 8.0728302 -0.02069092 C9.55845766 -0.02532298 11.04408395 -0.03034816 12.52970886 -0.03573608 C16.56615333 -0.04884408 20.60258115 -0.05530452 24.63904357 -0.05974674 C27.17252493 -0.06268632 29.70600186 -0.06679326 32.23948097 -0.07125092 C40.19836695 -0.08493541 48.15724266 -0.09459158 56.11613959 -0.09845281 C65.23958691 -0.102905 74.36288228 -0.1203152 83.48628348 -0.1494534 C90.57293461 -0.171282 97.65954374 -0.18116857 104.74622804 -0.18249393 C108.96013226 -0.18352904 113.17389391 -0.18915116 117.38776207 -0.20731354 C144.40957886 -0.31697175 170.42298656 1.18716207 196.68928528 8.14044189 C197.53152649 8.36071045 198.3737677 8.580979 199.24153137 8.80792236 C225.03201225 15.68371949 251.12979123 27.30869403 272.68928528 43.14044189 C274.17041809 44.21552002 274.17041809 44.21552002 275.68147278 45.31231689 C288.108636 54.48248823 299.52980358 64.49108888 310.68928528 75.14044189 C311.48721497 75.89583252 312.28514465 76.65122314 313.10725403 77.42950439 C317.55923178 81.7481894 321.47546564 86.40509633 325.34944153 91.24591064 C326.88820505 93.14945617 328.45810384 95.02831968 330.06037903 96.87872314 C365.48188949 137.85432644 385.63281973 193.86976399 385.89241028 247.83575439 C385.89942459 248.81837753 385.9064389 249.80100067 385.91366577 250.81340027 C385.93105954 253.96412804 385.93751725 257.11466788 385.93928528 260.26544189 C385.93996002 261.34179901 385.94063477 262.41815613 385.94132996 263.52713013 C385.92564227 279.26188326 385.60440319 294.63167632 382.68928528 310.14044189 C382.51236145 311.10546631 382.33543762 312.07049072 382.15315247 313.0647583 C375.90061391 346.25504716 363.71194179 379.70069697 343.68928528 407.14044189 C342.61750815 408.64553449 341.54590983 410.15075443 340.47444153 411.65606689 C333.71710826 421.06344432 326.68392699 429.7663491 318.68928528 438.14044189 C317.47215684 439.52861282 316.26283136 440.92369568 315.06428528 442.32794189 C308.83016296 449.49941434 301.98494748 456.06072339 294.68928528 462.14044189 C293.93615051 462.77224365 293.93615051 462.77224365 293.1678009 463.41680908 C231.00656511 515.29003546 158.73137681 523.55576451 80.45063782 523.33605957 C75.6150262 523.32526471 70.77944251 523.32564718 65.94382095 523.32603264 C24.52631199 523.32552714 24.52631199 523.32552714 5.05647278 522.81622314 C3.93354828 522.79448532 2.81062378 522.7727475 1.65367126 522.75035095 C-15.04542262 522.19182753 -27.51772213 516.8924866 -39.31071472 505.14044189 C-39.88821472 504.58614502 -40.46571472 504.03184814 -41.06071472 503.46075439 C-50.76696023 493.29952863 -53.82841265 479.09990862 -53.55680847 465.50372314 C-52.36981973 449.28154373 -45.27473124 437.15550446 -33.34196472 426.35919189 C-21.20373557 416.6088111 -7.84436422 414.83723878 7.22322083 414.8850708 C8.67652075 414.88231588 10.12981916 414.87863295 11.58311462 414.87409973 C14.69976527 414.86602405 17.81634432 414.86381027 20.93300438 414.86604691 C25.88395306 414.86890143 30.83476145 414.85444467 35.78567505 414.83706665 C49.86037566 414.79025551 63.93506685 414.76614157 78.00984192 414.75958252 C85.79376877 414.75580218 93.5775365 414.73753307 101.36139518 414.70448816 C105.46559198 414.68776724 109.56949977 414.67832691 113.67372704 414.68742752 C160.76983778 414.78262497 197.4399112 402.80751492 232.68928528 371.14044189 C233.77789856 370.1794458 233.77789856 370.1794458 234.88850403 369.19903564 C263.43199681 342.45073109 275.67744268 303.98384347 277.87287903 265.96075439 C277.94418026 262.99965606 277.85204758 260.09846976 277.68928528 257.14044189 C277.63562805 256.08179932 277.63562805 256.08179932 277.58088684 255.00177002 C276.44363201 234.79681924 272.2968664 214.53217998 263.68928528 196.14044189 C263.38232727 195.48253662 263.07536926 194.82463135 262.7591095 194.14678955 C245.37150444 157.23169979 214.79813766 129.93112432 176.63459778 115.57012939 C161.01545541 110.14726708 145.94525379 107.99487811 129.5091095 107.98272705 C128.08238572 107.97805099 126.65566342 107.97290614 125.22894287 107.96733093 C122.16848264 107.95610243 119.10803184 107.94764303 116.04755783 107.9412117 C111.19552312 107.93046455 106.34355648 107.91020123 101.49156189 107.88809204 C87.69812656 107.8263957 73.90469597 107.77224447 60.11116028 107.73907471 C52.48370889 107.72065309 44.85637258 107.69162475 37.22900593 107.65107 C33.20223654 107.63012835 29.17561132 107.61456111 25.14878464 107.61226273 C21.35487839 107.61009452 17.5612724 107.59400753 13.76745796 107.567873 C11.73536952 107.55740697 9.70322211 107.56139798 7.67111206 107.5660553 C-9.4406688 107.41353549 -23.67277138 103.84258844 -36.24821472 91.82794189 C-47.27220763 80.05085645 -51.9610945 67.22564388 -51.78337097 51.17022705 C-51.217973 35.86453525 -44.48347648 22.54000215 -33.31071472 12.14044189 C-23.5053358 4.60013531 -12.4158103 0.03343413 0 0 Z " fill="#353688" transform="translate(469.3107147216797,326.85955810546875)"/>
<path d="M0 0 C1.49772392 -0.00435574 2.99544561 -0.00954174 4.49316406 -0.01548767 C8.53713249 -0.02880435 12.58100702 -0.02946397 16.62499309 -0.02692437 C20.01866982 -0.02584847 23.41232804 -0.03075437 26.80600077 -0.03552979 C34.82787549 -0.04660224 42.84970338 -0.04707683 50.87158203 -0.04101562 C59.09893093 -0.03499371 67.32610804 -0.04724658 75.55342764 -0.06858569 C82.65451538 -0.08631467 89.75554903 -0.09218494 96.85665804 -0.08894795 C101.08087211 -0.08715093 105.30496396 -0.0896094 109.52915764 -0.10366249 C149.57181102 -0.22559386 149.57181102 -0.22559386 168.93774414 5.9621582 C170.16545532 6.34452637 170.16545532 6.34452637 171.41796875 6.73461914 C191.33816529 13.12710625 211.55369425 22.13083508 227.93774414 35.2746582 C228.77692383 35.91274414 229.61610352 36.55083008 230.48071289 37.20825195 C268.01765559 66.5391865 291.45543373 110.32449762 297.59375 157.30004883 C302.98447865 203.91512184 291.01705477 249.13458451 262.34008789 286.27856445 C238.21538631 316.3657939 208.06745873 337.33473105 170.93774414 348.2746582 C169.43189003 348.73304077 169.43189003 348.73304077 167.89561462 349.20068359 C143.48423167 356.40619635 119.49324311 356.12922055 94.23431396 355.75531006 C88.76911925 355.68238854 83.30368053 355.65145747 77.83813477 355.61645508 C67.20405344 355.54243296 56.57102078 355.42372621 45.93774414 355.2746582 C46.10007538 355.82911118 46.26240662 356.38356415 46.42965698 356.95481873 C46.98796097 359.50393968 47.06482372 361.78259369 47.06713867 364.39208984 C47.07023041 365.42475479 47.07332214 366.45741974 47.07650757 367.52137756 C47.07356186 369.21102882 47.07356186 369.21102882 47.07055664 370.93481445 C47.07280746 372.71854713 47.07280746 372.71854713 47.07510376 374.53831482 C47.07748072 378.47128677 47.07120649 382.40419928 47.06274414 386.3371582 C47.06047093 387.6942545 47.05823312 389.05135085 47.05603027 390.40844727 C47.03929114 399.64625992 46.99871718 408.88387175 46.94889832 418.12155914 C46.9378392 420.2563086 46.92812643 422.39106009 46.91882324 424.52581787 C46.88240896 432.66224301 46.82177953 440.79780453 46.72821045 448.93380737 C46.70144189 451.47453932 46.68103571 454.01534705 46.66729736 456.55618286 C46.54383954 477.21758551 44.85844804 493.39515553 30.19555664 509.1730957 C18.39658171 520.15553258 4.06265292 523.82232152 -11.63256836 523.55200195 C-24.01404065 523.01772202 -37.30072412 517.03618995 -46.06225586 508.2746582 C-58.57674553 492.74787454 -61.52254124 478.66274899 -61.46630859 459.13623047 C-61.47202158 457.33291198 -61.47898941 455.52959711 -61.48710632 453.72628784 C-61.50494956 448.8605255 -61.50388616 443.99494436 -61.49816394 439.12915921 C-61.49505948 435.05383109 -61.50117841 430.97853715 -61.50720268 426.90321392 C-61.52121708 417.2831029 -61.51971216 407.66308075 -61.50830078 398.04296875 C-61.49682043 388.14653013 -61.51090096 378.25036254 -61.53769726 368.35395962 C-61.5599071 359.82957422 -61.56647981 351.30527357 -61.56062084 342.78086132 C-61.55726296 337.70171196 -61.55958834 332.62273631 -61.57687187 327.54361153 C-61.59242363 322.76553765 -61.58829483 317.98786311 -61.56956673 313.20980453 C-61.56590363 311.46563095 -61.56892204 309.72142722 -61.57945251 307.97728157 C-61.67660699 290.54249523 -58.09774626 276.63337254 -45.87475586 263.5246582 C-31.82770831 250.19429676 -16.02184632 248.13226516 2.4753418 248.11694336 C3.83310101 248.1122667 5.19085868 248.10712175 6.5486145 248.10154724 C9.46010819 248.09032285 12.37159198 248.08186149 15.28310013 248.07542801 C19.89990204 248.06467534 24.51663255 248.04441058 29.13339233 248.02230835 C42.2577587 247.96063057 55.38212005 247.90646859 68.5065918 247.87329102 C75.76488251 247.85486307 83.02305242 247.82582704 90.28125417 247.78528631 C94.11240523 247.76435515 97.94340503 247.74877895 101.77461624 247.74647903 C105.38467514 247.74430909 108.99441902 247.72820521 112.60438156 247.70208931 C114.53627501 247.69163561 116.46823037 247.69561136 118.40014648 247.70027161 C137.47911595 247.52177038 156.07341014 241.79756075 170.18774414 228.5246582 C183.35310451 214.50127027 191.52369731 194.6105616 191.35766602 175.43164062 C190.6446359 156.30095108 182.16834164 138.94794786 168.34008789 125.8059082 C162.04526495 120.37152869 155.58433451 116.48948604 147.93774414 113.2746582 C146.89507889 112.83207672 145.85241364 112.38949524 144.77815247 111.9335022 C130.20438135 106.75330076 114.97746744 107.58716538 99.72372031 107.66455412 C95.65876834 107.67902573 91.5939445 107.66253406 87.52900696 107.64883423 C78.97351235 107.62450143 70.41824091 107.63008646 61.86273193 107.64263916 C48.97255953 107.66131594 36.08242942 107.656209 23.19228774 107.62260497 C18.37595586 107.61117612 13.55998036 107.6154108 8.74366891 107.63262534 C5.73956555 107.64058204 2.73556363 107.63623558 -0.26853752 107.62891579 C-2.30097238 107.62773371 -4.33339928 107.64146918 -6.36578369 107.65583801 C-23.87154139 107.58067237 -36.67277906 102.62111598 -49.06225586 90.2746582 C-49.63975586 89.72036133 -50.21725586 89.16606445 -50.81225586 88.5949707 C-60.53976937 78.41148 -63.5565319 64.41706946 -63.30834961 50.82543945 C-62.28571997 36.07035464 -55.83388866 23.31542093 -45.06225586 13.2746582 C-31.49141848 1.99809317 -17.16437489 -0.03321863 0 0 Z " fill="#353688" transform="translate(1463.062255859375,326.725341796875)"/>
<path d="M0 0 C9.68329712 8.20145923 16.71336006 19.46969394 19.265625 31.99609375 C19.35535305 34.15437103 19.38759391 36.31526187 19.38587952 38.47540283 C19.38673394 39.1240218 19.38758837 39.77264078 19.38846868 40.44091487 C19.39011441 42.61200529 19.38461699 44.78301827 19.37915039 46.95410156 C19.3788683 48.511322 19.37902669 50.06854258 19.3795929 51.62576294 C19.37988 55.85267563 19.3739972 60.07956 19.36701894 64.3064661 C19.36077106 68.72406432 19.36018046 73.14166318 19.35899353 77.55926514 C19.35588445 85.92438967 19.34767676 94.28950115 19.33764404 102.65461993 C19.32646977 112.17810891 19.32096914 121.70159851 19.31594861 131.22509241 C19.30549381 150.81543348 19.28790254 170.40576279 19.265625 189.99609375 C20.33131651 189.99194568 20.33131651 189.99194568 21.41853714 189.98771381 C38.74736211 189.92130988 56.07615454 189.87174329 73.40507889 189.84065723 C81.78539871 189.82522267 90.16563332 189.80419879 98.54589844 189.76977539 C105.85458269 189.73976814 113.16320519 189.72049399 120.47194934 189.71382827 C124.33785574 189.70993509 128.20358559 189.70085771 132.06943512 189.67890358 C135.71706529 189.65835891 139.36444819 189.65229574 143.01213074 189.65677071 C144.97078629 189.65556733 146.92941565 189.63952016 148.88800049 189.62283325 C165.72933174 189.68097878 179.64304718 194.65265542 191.85546875 206.42578125 C201.91980849 217.15890208 205.86038255 230.46887567 206.265625 244.99609375 C205.4325873 260.66761541 199.3500295 273.48845443 188.015625 284.30859375 C175.4695178 294.81030955 160.9801425 297.47237784 145.05175781 297.33666992 C143.67069518 297.33582141 142.28963119 297.33630315 140.90856934 297.33799744 C137.19853256 297.33885009 133.48879313 297.32134444 129.77882481 297.30027556 C125.88713189 297.28138535 121.99543042 297.27974868 118.10369873 297.27619934 C110.75167858 297.26691483 103.39979396 297.24235033 96.0478332 297.21215087 C87.67046628 297.17849421 79.29309251 297.16209267 70.91567469 297.14706457 C53.69891336 297.11579709 36.48228356 297.0631074 19.265625 296.99609375 C19.26931217 297.87147419 19.27299934 298.74685463 19.27679825 299.64876175 C19.36527087 320.98326785 19.43139371 342.31774218 19.47287369 363.65239334 C19.49346808 373.96982679 19.52152883 384.28713752 19.56738281 394.60449219 C19.60734634 403.6007835 19.6330805 412.5969859 19.64197898 421.59336352 C19.64717764 426.35356582 19.6593309 431.11351382 19.68854523 435.87363434 C19.71586493 440.36176791 19.72403682 444.84954446 19.71805573 449.3377533 C19.7191486 450.97754105 19.72700338 452.61734179 19.7424469 454.25705719 C19.88525367 470.21354562 16.22091245 484.77029932 5.015625 496.80859375 C-8.06574875 508.78038669 -23.24841336 512.92313933 -40.57910156 512.17529297 C-53.96037497 511.06271315 -66.07386256 503.78741627 -75.1484375 494.2578125 C-86.70239127 480.49185643 -88.03688751 464.83744764 -87.99507141 447.5945282 C-87.99809484 445.82562166 -88.00198529 444.05671642 -88.00666398 442.28781348 C-88.016928 437.44420714 -88.01476622 432.60067494 -88.01048338 427.75706255 C-88.00801326 422.52653053 -88.0170339 417.29601623 -88.02452087 412.06549072 C-88.03726203 401.8248237 -88.03906228 391.5841829 -88.03672061 381.34350928 C-88.0349366 373.01815028 -88.03668888 364.69279923 -88.04094505 356.36744118 C-88.04154024 355.1819195 -88.04213543 353.99639783 -88.04274866 352.77495125 C-88.04396043 350.3664481 -88.04517456 347.95794494 -88.04639103 345.54944179 C-88.05726438 322.96859215 -88.05510508 300.38775745 -88.04900619 277.80690698 C-88.04383752 257.15898747 -88.05509153 236.51111515 -88.07410441 215.86320498 C-88.09348651 194.65135838 -88.10173813 173.43953411 -88.09798115 152.2276786 C-88.09606964 140.32309753 -88.09855184 128.41855661 -88.11269569 116.51398277 C-88.1246152 106.37918027 -88.12600796 96.24444265 -88.11390553 86.10963925 C-88.10802082 80.94146203 -88.10690618 75.77340344 -88.11890793 70.60523415 C-88.12977991 65.86841116 -88.12664768 61.13180567 -88.11264624 56.39499281 C-88.11000294 54.68713104 -88.11235425 52.97925215 -88.12038211 51.27140721 C-88.20102222 32.82666374 -85.12494358 18.02332598 -72.015625 4.21484375 C-52.1868563 -15.07067101 -22.18014147 -16.25487511 0 0 Z " fill="#353688" transform="translate(3385.734375,338.00390625)"/>
<path d="M0 0 C9.80569946 8.24816433 16.56017417 19.25870615 19.078125 31.87890625 C19.5122861 37.78878141 19.48382472 43.6813256 19.45907593 49.60437012 C19.46253569 51.40841438 19.4673024 53.21245652 19.47325766 55.01649427 C19.48575344 59.9571403 19.47960371 64.89761194 19.47029901 69.8382585 C19.46350305 75.1730324 19.47399246 80.50777659 19.48223877 85.84254456 C19.49557244 96.28675853 19.49269998 106.73090779 19.48400085 117.17512429 C19.47722328 125.66403174 19.4763079 134.15292106 19.4795723 142.64183044 C19.480032 143.85042118 19.48049169 145.05901191 19.48096532 146.30422661 C19.48192451 148.75952296 19.48289715 151.21481931 19.4838831 153.67011565 C19.49243592 176.68867137 19.48260454 199.70719124 19.466482 222.72574109 C19.45307892 242.4729404 19.45540705 262.2200868 19.46923828 281.96728516 C19.48529598 304.90397338 19.49161196 327.84063019 19.48240149 350.77732325 C19.48144585 353.22354284 19.48050274 355.66976245 19.4795723 358.11598206 C19.47910947 359.31954124 19.47864664 360.52310043 19.47816979 361.76313111 C19.47558048 370.24097509 19.47994965 378.71879913 19.48701096 387.19664001 C19.49542824 397.52952648 19.49314094 407.86234457 19.47716872 418.19522321 C19.46928915 423.46631341 19.46618915 428.73728965 19.47611618 434.00837898 C19.48506994 438.83571954 19.48011887 443.66284075 19.46418352 448.49016148 C19.46083863 450.2343067 19.46252322 451.97847053 19.46981089 453.72260374 C19.53700766 471.14401597 15.85969066 484.60878671 3.55859375 497.58984375 C-8.40214232 508.62762538 -22.59937952 512.42997261 -38.4921875 512.15625 C-52.56546 511.54896624 -65.18891923 504.59865254 -74.69921875 494.515625 C-83.71189139 483.82396589 -88.03990775 471.38425267 -88.05330276 457.47428703 C-88.0553554 456.74664681 -88.05740803 456.0190066 -88.05952287 455.26931667 C-88.06517919 452.83007056 -88.06373731 450.39088115 -88.06231689 447.95162964 C-88.06490131 446.1854636 -88.06791469 444.41929815 -88.0713203 442.65313351 C-88.07938452 437.79857888 -88.08117955 432.94403903 -88.08191776 428.08947849 C-88.08376932 422.85412767 -88.09131718 417.6187845 -88.09805298 412.38343811 C-88.11163273 400.93500673 -88.11766047 389.48657886 -88.12206364 378.03814077 C-88.12482667 370.88903447 -88.12906414 363.73992952 -88.13356781 356.59082413 C-88.14576002 336.79518405 -88.15605942 316.99954505 -88.1594429 297.20390129 C-88.15966247 295.93702553 -88.15988203 294.67014978 -88.16010825 293.36488385 C-88.16032653 292.09498527 -88.16054481 290.8250867 -88.1607697 289.51670635 C-88.16121317 286.94342923 -88.16165973 284.37015212 -88.16210938 281.796875 C-88.1623308 280.520442 -88.16255223 279.24400899 -88.16278037 277.9288962 C-88.1667281 257.24771676 -88.18418157 236.56657255 -88.2074689 215.88540672 C-88.23118725 194.64996439 -88.24364497 173.41453974 -88.24481082 152.17908394 C-88.24572731 140.25714519 -88.25147306 128.33525236 -88.26963043 116.41332626 C-88.28503792 106.26120168 -88.29014803 96.10913721 -88.28189233 85.95700316 C-88.27798815 80.77884818 -88.2789042 75.60081423 -88.29294968 70.42267418 C-88.30570224 65.67773062 -88.30447912 60.93299886 -88.29235896 56.18805553 C-88.29040433 54.47605221 -88.29346958 52.76403381 -88.30220333 51.05205165 C-88.38865507 32.95274155 -85.12682213 17.52468451 -72.203125 4.0625 C-52.04823576 -15.22959432 -22.43087182 -16.28337352 0 0 Z " fill="#353688" transform="translate(3730.921875,338.12109375)"/>
<path d="M0 0 C1.22598435 -0.00384115 2.45196871 -0.00768229 3.7151041 -0.01163983 C5.06732247 -0.01085969 6.41954079 -0.00998093 7.77175903 -0.00901413 C9.2147654 -0.01159941 10.65777105 -0.01461303 12.10077572 -0.01801753 C16.06214704 -0.02607188 20.02350023 -0.02787623 23.98487878 -0.028615 C28.25911458 -0.03046832 32.53334103 -0.03801715 36.80757141 -0.04475021 C46.15289812 -0.05832374 55.49822053 -0.06435695 64.84355545 -0.06876087 C70.68208151 -0.0715254 76.52060592 -0.07576318 82.35913086 -0.08026505 C98.53298336 -0.09245728 114.70683453 -0.10275613 130.88069153 -0.10614014 C131.91559048 -0.1063597 132.95048944 -0.10657927 134.01674896 -0.10680549 C135.05409068 -0.10702377 136.09143239 -0.10724204 137.1602087 -0.10746694 C139.26217079 -0.1079104 141.36413288 -0.10835696 143.46609497 -0.10880661 C144.5087354 -0.10902804 145.55137583 -0.10924947 146.62561142 -0.10947761 C163.5095924 -0.11342327 180.39353015 -0.13087042 197.27749443 -0.15416613 C214.62344405 -0.17790548 231.96937201 -0.19034319 249.31533813 -0.19150805 C259.04975743 -0.19242345 268.78412042 -0.19814152 278.51852417 -0.21632767 C286.80996311 -0.23176365 295.10132835 -0.23682859 303.39277893 -0.22858956 C307.6193167 -0.2246952 311.84570624 -0.22555295 316.07222557 -0.23964691 C319.95005776 -0.25245921 323.82763144 -0.25112474 327.70546365 -0.2390562 C329.0998739 -0.23711178 330.49430294 -0.24011881 331.8886869 -0.24890056 C349.67470111 -0.35372133 364.63845588 2.91076064 377.75662231 15.44392776 C388.78061522 27.22101321 393.4695021 40.04622578 393.29177856 56.10164261 C392.72638059 71.40733441 385.99188407 84.73186751 374.81912231 95.13142776 C365.08946843 102.61350203 354.01238175 107.24852684 341.67761898 107.26285553 C340.4349753 107.26669667 339.19233162 107.27053782 337.91203207 107.27449536 C336.53584216 107.27371517 335.15965231 107.27283639 333.78346252 107.27186966 C332.31926984 107.27445411 330.85507785 107.27746749 329.39088684 107.28087306 C325.36638713 107.28893714 321.34190526 107.29073231 317.31739843 107.29147053 C312.97706142 107.29332215 308.63673364 107.3008701 304.29640198 107.30760574 C294.80446078 107.32118606 285.31252381 107.3272135 275.82057452 107.3316164 C269.89211675 107.33437971 263.96366061 107.33861726 258.03520393 107.34312057 C241.61690466 107.35531355 225.1986067 107.36561235 208.780303 107.36899567 C207.20414012 107.36932502 207.20414012 107.36932502 205.59613556 107.36966102 C204.01622235 107.36998843 204.01622235 107.36998843 202.40439171 107.37032247 C200.27009292 107.37076593 198.13579414 107.37121249 196.00149536 107.37166214 C194.94281174 107.37188357 193.88412811 107.372105 192.79336316 107.37233314 C175.64607348 107.37627957 158.49882633 107.39372873 141.35155308 107.41702166 C123.74122189 107.44075021 106.13091204 107.45319823 88.52056462 107.45436358 C78.63528792 107.45527957 68.75006663 107.46101261 58.86480522 107.4791832 C50.44555885 107.49460456 42.026385 107.49969269 33.60712718 107.49144509 C29.31401125 107.48754561 25.02104128 107.48843374 20.72794342 107.50250244 C16.79158039 107.51528371 12.85547236 107.51400703 8.91910947 107.50191173 C7.50115195 107.499962 6.0831761 107.50299942 4.66524427 107.51175609 C-12.61013888 107.61161946 -26.1970316 103.57921524 -38.89181519 91.54939651 C-51.03020948 78.72744076 -53.69644533 65.43989463 -53.45822144 48.38924026 C-53.00605332 35.70603706 -46.78735347 24.31488719 -38.27853394 15.07674026 C-27.58477423 5.15962233 -14.53921299 0.01715573 0 0 Z " fill="#353688" transform="translate(1868.1808776855469,326.8685722351074)"/>
<path d="M0 0 C13.8426013 -0.60846599 28.05992239 4.39046862 38.9453125 12.90625 C51.65044335 25.03387491 56.81485192 40.3376765 57.2522049 57.51199341 C57.356443 64.22792361 57.34096389 70.94362346 57.32910156 77.66015625 C57.33181477 80.24193419 57.33537756 82.82371135 57.33972168 85.40548706 C57.34857248 91.66525313 57.34671303 97.92497099 57.3408964 104.18473887 C57.33636283 109.27633097 57.3357743 114.36790964 57.33794403 119.45950317 C57.3382505 120.18668377 57.33855696 120.91386438 57.33887272 121.66308075 C57.33951223 123.14075431 57.34016065 124.61842786 57.3408179 126.0961014 C57.34650856 139.92264504 57.3399832 153.74916208 57.32921717 167.57570136 C57.32028281 179.41604078 57.32183521 191.25634097 57.33105469 203.09667969 C57.34177972 216.87683094 57.34595935 230.65695892 57.33983016 244.43711376 C57.33919312 245.90907478 57.33856438 247.3810358 57.33794403 248.85299683 C57.3374812 249.93908835 57.3374812 249.93908835 57.33700903 251.04712111 C57.33528878 256.12721447 57.33818267 261.20729297 57.34290314 266.28738403 C57.34912776 273.13617775 57.34463846 279.98489651 57.33311462 286.83368301 C57.33048009 289.34059655 57.3312124 291.84751633 57.33563995 294.35442734 C57.37025337 315.95119486 57.12069299 335.0235927 42.0703125 352.15625 C31.17117789 362.60942984 18.17649573 368.14860439 3.0703125 368.53125 C-11.79040335 368.13931903 -24.92732033 362.90131459 -35.6796875 352.5625 C-47.14576066 340.30017176 -51.08387958 326.59648727 -51.07012939 310.1580658 C-51.07310052 309.04730181 -51.07607164 307.93653782 -51.0791328 306.79211432 C-51.08780757 303.06835178 -51.08932703 299.34462145 -51.09082031 295.62084961 C-51.09544939 292.95143483 -51.10045379 290.28202295 -51.10586548 287.61260986 C-51.11942785 280.35819309 -51.12547046 273.10378185 -51.12987614 265.84935451 C-51.13264253 261.31540164 -51.13688065 256.7814509 -51.14138031 252.24749947 C-51.15357105 239.68256101 -51.16387022 227.11762425 -51.1672554 214.55268002 C-51.16747497 213.74900318 -51.16769453 212.94532634 -51.16792075 212.11729566 C-51.16813903 211.31174443 -51.16835731 210.5061932 -51.1685822 209.67623132 C-51.16902566 208.04400122 -51.16947222 206.41177112 -51.16992188 204.77954102 C-51.1701433 203.96990623 -51.17036473 203.16027144 -51.17059287 202.32610226 C-51.1745378 189.21789142 -51.19198336 176.10973626 -51.2152814 163.00154691 C-51.23903423 149.52815413 -51.25145907 136.05478923 -51.25262332 122.58137518 C-51.25353796 115.02283129 -51.25923674 107.46435994 -51.27744293 99.90583611 C-51.2928972 93.46730933 -51.2979332 87.02887753 -51.28970483 80.59033572 C-51.28581683 77.30969506 -51.28829231 74.02928389 -51.30076218 70.74865913 C-51.37532308 49.90368839 -50.76778517 31.41219095 -35.47265625 15.4765625 C-25.2380383 6.13806317 -13.77756915 1.11559264 0 0 Z " fill="#353688" transform="translate(2034.9296875,480.84375)"/>
<path d="M0 0 C1.78707115 -0.01073296 1.78707115 -0.01073296 3.61024475 -0.02168274 C4.91416672 -0.02437164 6.21808868 -0.02706055 7.56152344 -0.02983093 C8.95149402 -0.03609907 10.34146295 -0.04274618 11.73143005 -0.04974365 C16.29457439 -0.07075421 20.85771892 -0.08114689 25.42089844 -0.09111023 C26.99565651 -0.09515965 28.5704144 -0.09927663 30.14517212 -0.10346031 C37.54873614 -0.12250959 44.95229025 -0.13673817 52.35587406 -0.14507228 C60.88014786 -0.15482797 69.40416083 -0.18110472 77.92834282 -0.22157317 C84.52983243 -0.25182907 91.13124771 -0.26655031 97.73280525 -0.26985329 C101.6691153 -0.27219403 105.60514666 -0.28102537 109.54138184 -0.30631447 C113.25151355 -0.32976521 116.96118647 -0.33376113 120.67137337 -0.32355309 C122.66339706 -0.32282937 124.65539834 -0.34180277 126.64732361 -0.36161804 C141.05274393 -0.27921804 153.79976543 4.6698008 164.51855469 14.40498352 C174.71800516 25.15901405 179.29193532 38.42382103 180.48339844 52.95967102 C179.88004685 70.3149021 172.40600233 83.49639166 160.04980469 95.14717102 C151.90837457 102.07859043 141.11851744 106.24950256 130.42445374 106.29434204 C129.25134644 106.30149734 128.07823914 106.30865265 126.86958313 106.31602478 C125.58593369 106.31871368 124.30228424 106.32140259 122.97973633 106.32417297 C121.61109242 106.3304413 120.24245019 106.33708843 118.87380981 106.34408569 C114.38040342 106.36509669 109.88699682 106.37549003 105.39355469 106.38545227 C103.84234538 106.38950189 102.29113625 106.39361888 100.73992729 106.39780235 C93.44581813 106.41685295 86.15171903 106.43108039 78.85758978 106.43941432 C70.46293523 106.44916584 62.06854582 106.47543102 53.67398459 106.51591522 C47.17099232 106.54619001 40.66807552 106.56089418 34.16501421 106.56419533 C30.28847407 106.56653424 26.41221719 106.57534093 22.53575325 106.60065651 C18.88060847 106.62414013 15.22592931 106.62809034 11.5707283 106.61789513 C9.61110153 106.61717286 7.65149733 106.63612365 5.69197083 106.65596008 C-9.77461685 106.56634937 -22.27320498 101.50165567 -33.57910156 90.95967102 C-43.73517536 80.25757175 -48.42799348 67.86917341 -48.26660156 53.27217102 C-48.25902832 52.30763 -48.25145508 51.34308899 -48.24365234 50.34931946 C-47.9415038 37.26209734 -43.18849441 25.5064168 -34.41503906 15.64326477 C-25.03511442 6.79471517 -13.09500308 0.05405536 0 0 Z " fill="#353688" transform="translate(2527.8291015625,534.8528289794922)"/>
<path d="M0 0 C1.39041502 -0.00599153 2.78082673 -0.01279851 4.17123413 -0.02035522 C7.93391998 -0.03796234 11.69651475 -0.04270846 15.45923781 -0.0439868 C17.81540281 -0.04541236 20.17154494 -0.04968967 22.52770424 -0.05498123 C30.76311324 -0.07346648 38.99845766 -0.08165404 47.23388672 -0.08007812 C54.88480558 -0.07887826 62.53544165 -0.09995389 70.18628901 -0.13156545 C76.77511158 -0.15780915 83.36384228 -0.16844199 89.95271665 -0.16716731 C93.87890505 -0.16665989 97.80484213 -0.17221933 101.73097801 -0.19352341 C105.4288597 -0.21304209 109.12625392 -0.21293861 112.8241539 -0.19849014 C114.80897668 -0.19543805 116.79380022 -0.21198402 118.77854919 -0.22937012 C133.16672871 -0.12958364 145.91060616 4.82491 156.61645508 14.54833984 C166.81590555 25.30237037 171.38983571 38.56717735 172.58129883 53.10302734 C171.97794724 70.45825843 164.50390272 83.63974798 152.14770508 95.29052734 C144.00972151 102.21901244 133.22487994 106.38583815 122.53581238 106.44442749 C121.3655954 106.45302795 120.19537842 106.46162842 118.98970032 106.4704895 C117.06893929 106.47687943 117.06893929 106.47687943 115.109375 106.48339844 C113.74397577 106.49130456 112.3785786 106.49957383 111.01318359 106.50817871 C106.52939843 106.53435983 102.04560417 106.54971158 97.56176758 106.56396484 C96.01307991 106.56932786 94.46439229 106.57470537 92.91570473 106.5800972 C86.46551286 106.60172833 80.01532344 106.62045833 73.56510448 106.63171959 C64.35306893 106.64791261 55.14145823 106.68097374 45.92958277 106.73812044 C39.43675259 106.77700878 32.94403507 106.79637499 26.45109159 106.80164015 C22.58223871 106.80527053 18.71383932 106.81704007 14.84511375 106.84974289 C11.19481728 106.88015502 7.54524071 106.88601993 3.89484406 106.87435913 C1.94273052 106.87403842 -0.0093408 106.89828647 -1.96128845 106.92373657 C-15.35032479 106.83101829 -27.40502747 103.04214265 -37.73120117 94.29052734 C-38.43760742 93.69498047 -39.14401367 93.09943359 -39.87182617 92.48583984 C-49.31713521 83.79759756 -55.52465732 71.80304829 -56.16479492 58.92333984 C-56.18814516 57.08755038 -56.188999 55.2513531 -56.16870117 53.41552734 C-56.16112793 52.45098633 -56.15355469 51.48644531 -56.14575195 50.49267578 C-55.97676415 43.17316016 -55.0075257 36.91507067 -51.73120117 30.29052734 C-51.33030273 29.44876953 -50.9294043 28.60701172 -50.51635742 27.73974609 C-43.16882787 14.04565479 -32.03010272 6.51244839 -17.87944031 1.22494507 C-12.06624449 -0.38641164 -5.98180971 -0.00419271 0 0 Z " fill="#353688" transform="translate(1129.731201171875,534.70947265625)"/>
</svg>
