<?xml version="1.0" standalone="no"?>
<!DOCTYPE svg PUBLIC "-//W3C//DTD SVG 20010904//EN"
 "http://www.w3.org/TR/2001/REC-SVG-20010904/DTD/svg10.dtd">
<svg version="1.0" xmlns="http://www.w3.org/2000/svg"
 width="626.000000pt" height="626.000000pt" viewBox="0 0 626.000000 626.000000"
 preserveAspectRatio="xMidYMid meet">

<g transform="translate(0.000000,626.000000) scale(0.100000,-0.100000)"
fill="#000000" stroke="none">
<path d="M0 3130 l0 -3130 3130 0 3130 0 0 3130 0 3130 -3130 0 -3130 0 0
-3130z m1354 314 c64 -22 148 -101 183 -172 24 -49 28 -69 28 -142 0 -73 -4
-93 -28 -141 -31 -63 -93 -126 -159 -161 -38 -20 -60 -23 -189 -26 -144 -4
-147 -3 -163 19 -22 32 -20 72 5 95 18 16 39 19 141 21 108 2 124 5 163 27 62
37 90 86 90 161 0 100 -51 169 -144 195 -20 5 -82 10 -138 10 -94 0 -103 2
-117 22 -9 12 -16 32 -16 43 0 11 7 31 16 43 14 21 22 22 148 22 95 0 146 -4
180 -16z m820 -6 c21 -29 20 -67 -1 -90 -13 -15 -32 -18 -117 -18 -121 0 -165
-11 -212 -52 -86 -76 -95 -190 -22 -274 51 -58 79 -67 210 -69 132 -2 158 -13
158 -68 0 -59 -18 -67 -161 -67 -162 0 -219 18 -294 94 -81 81 -109 165 -95
280 10 79 29 124 75 175 80 89 140 110 312 111 125 0 133 -1 147 -22z m446
-13 c88 -60 124 -185 81 -280 -23 -51 -89 -111 -138 -124 -21 -6 -66 -11 -100
-11 l-63 0 0 -85 c0 -72 -3 -88 -20 -105 -23 -23 -68 -26 -96 -6 -17 13 -19
27 -19 155 0 180 -5 174 153 181 64 3 123 9 130 14 25 15 41 67 30 97 -19 54
-37 61 -163 63 -110 1 -118 2 -136 25 -23 28 -24 59 -3 89 16 23 20 23 158 20
138 -3 142 -4 186 -33z m706 27 c37 -24 39 -93 4 -112 -11 -6 -123 -10 -261
-10 -212 0 -245 2 -261 17 -22 20 -23 70 -1 95 15 16 36 18 262 18 135 0 251
-4 257 -8z m638 -14 c21 -29 20 -61 -2 -88 -16 -20 -29 -22 -142 -27 -156 -7
-198 -25 -236 -106 -38 -82 -28 -158 28 -216 53 -55 78 -62 208 -64 133 -2
160 -14 160 -70 0 -59 -18 -67 -161 -67 -104 0 -138 4 -183 20 -150 56 -237
214 -207 373 16 78 47 133 110 189 70 63 119 77 278 77 125 1 133 0 147 -21z
m620 7 c22 -22 28 -49 17 -78 -12 -32 -27 -36 -161 -39 -122 -3 -165 -20 -214
-81 -29 -36 -31 -45 -31 -117 0 -72 2 -81 31 -116 50 -62 83 -74 223 -77 117
-3 124 -4 143 -27 14 -17 18 -33 14 -55 -11 -52 -26 -57 -181 -53 -121 3 -146
6 -185 25 -61 30 -124 93 -157 156 -25 46 -28 63 -28 147 0 114 20 164 96 240
73 73 124 89 286 89 104 1 135 -2 147 -14z m208 -2 c15 -14 18 -32 18 -125 l0
-108 95 0 c88 0 98 -2 120 -25 30 -30 31 -54 4 -89 -20 -25 -24 -26 -120 -26
l-99 0 0 -117 c0 -132 -9 -153 -65 -153 -65 0 -66 4 -66 330 0 261 2 295 17
311 21 23 71 25 96 2z m442 -5 c14 -19 16 -66 16 -308 0 -321 -2 -330 -65
-330 -41 0 -62 20 -70 63 -3 18 -4 150 -2 294 2 240 4 263 21 282 26 29 80 28
100 -1z m-2120 -189 l26 -20 0 -195 c0 -181 -1 -195 -20 -214 -29 -29 -74 -26
-99 6 -20 25 -21 40 -21 211 0 182 0 184 25 208 30 30 54 31 89 4z m-1000 -72
c17 -18 22 -31 18 -55 -7 -51 -33 -62 -143 -62 -113 0 -140 13 -141 69 -2 57
26 71 144 71 90 0 101 -2 122 -23z m1784 6 c32 -28 33 -72 2 -103 -17 -17 -33
-20 -120 -20 -94 0 -103 2 -125 25 -14 13 -25 34 -25 45 0 12 11 32 25 45 22
23 31 25 123 25 81 0 104 -3 120 -17z"/>
</g>
</svg>
